<mxfile host="app.diagrams.net" modified="2022-11-15T04:29:23.329Z" agent="5.0 (Windows NT 10.0; Win64; x64) AppleWebKit/537.36 (KHTML, like Gecko) Chrome/107.0.0.0 Safari/537.36" etag="7p0Nc7hpeDm51-Vz3vep" version="20.5.3" type="github">
  <diagram id="sdWzKTSna-i6nfjIRKM7" name="페이지-1">
    <mxGraphModel dx="1083" dy="777" grid="1" gridSize="10" guides="1" tooltips="1" connect="1" arrows="1" fold="1" page="1" pageScale="1" pageWidth="827" pageHeight="1169" math="0" shadow="0">
      <root>
        <mxCell id="0" />
        <mxCell id="1" parent="0" />
        <mxCell id="DV9kczMkqCCmKIpBtvKd-37" value="movies_genre" style="shape=table;startSize=30;container=1;collapsible=1;childLayout=tableLayout;fixedRows=1;rowLines=0;fontStyle=1;align=center;resizeLast=1;" parent="1" vertex="1">
          <mxGeometry x="390" y="121" width="150" height="90" as="geometry" />
        </mxCell>
        <mxCell id="DV9kczMkqCCmKIpBtvKd-41" value="" style="shape=tableRow;horizontal=0;startSize=0;swimlaneHead=0;swimlaneBody=0;fillColor=none;collapsible=0;dropTarget=0;points=[[0,0.5],[1,0.5]];portConstraint=eastwest;top=0;left=0;right=0;bottom=1;" parent="DV9kczMkqCCmKIpBtvKd-37" vertex="1">
          <mxGeometry y="30" width="150" height="30" as="geometry" />
        </mxCell>
        <mxCell id="DV9kczMkqCCmKIpBtvKd-42" value="id" style="shape=partialRectangle;connectable=0;fillColor=none;top=0;left=0;bottom=0;right=0;fontStyle=1;overflow=hidden;" parent="DV9kczMkqCCmKIpBtvKd-41" vertex="1">
          <mxGeometry width="60" height="30" as="geometry">
            <mxRectangle width="60" height="30" as="alternateBounds" />
          </mxGeometry>
        </mxCell>
        <mxCell id="DV9kczMkqCCmKIpBtvKd-43" value="integer" style="shape=partialRectangle;connectable=0;fillColor=none;top=0;left=0;bottom=0;right=0;align=left;spacingLeft=6;fontStyle=5;overflow=hidden;" parent="DV9kczMkqCCmKIpBtvKd-41" vertex="1">
          <mxGeometry x="60" width="90" height="30" as="geometry">
            <mxRectangle width="90" height="30" as="alternateBounds" />
          </mxGeometry>
        </mxCell>
        <mxCell id="DV9kczMkqCCmKIpBtvKd-44" value="" style="shape=tableRow;horizontal=0;startSize=0;swimlaneHead=0;swimlaneBody=0;fillColor=none;collapsible=0;dropTarget=0;points=[[0,0.5],[1,0.5]];portConstraint=eastwest;top=0;left=0;right=0;bottom=0;" parent="DV9kczMkqCCmKIpBtvKd-37" vertex="1">
          <mxGeometry y="60" width="150" height="30" as="geometry" />
        </mxCell>
        <mxCell id="DV9kczMkqCCmKIpBtvKd-45" value="name" style="shape=partialRectangle;connectable=0;fillColor=none;top=0;left=0;bottom=0;right=0;editable=1;overflow=hidden;" parent="DV9kczMkqCCmKIpBtvKd-44" vertex="1">
          <mxGeometry width="60" height="30" as="geometry">
            <mxRectangle width="60" height="30" as="alternateBounds" />
          </mxGeometry>
        </mxCell>
        <mxCell id="DV9kczMkqCCmKIpBtvKd-46" value="varchar(30)" style="shape=partialRectangle;connectable=0;fillColor=none;top=0;left=0;bottom=0;right=0;align=left;spacingLeft=6;overflow=hidden;" parent="DV9kczMkqCCmKIpBtvKd-44" vertex="1">
          <mxGeometry x="60" width="90" height="30" as="geometry">
            <mxRectangle width="90" height="30" as="alternateBounds" />
          </mxGeometry>
        </mxCell>
        <mxCell id="DV9kczMkqCCmKIpBtvKd-173" style="edgeStyle=none;shape=connector;rounded=0;orthogonalLoop=1;jettySize=auto;html=1;exitX=1;exitY=0.5;exitDx=0;exitDy=0;labelBackgroundColor=default;strokeColor=default;fontFamily=Helvetica;fontSize=11;fontColor=default;endArrow=classic;" parent="DV9kczMkqCCmKIpBtvKd-37" source="DV9kczMkqCCmKIpBtvKd-41" target="DV9kczMkqCCmKIpBtvKd-41" edge="1">
          <mxGeometry relative="1" as="geometry" />
        </mxCell>
        <mxCell id="DV9kczMkqCCmKIpBtvKd-202" style="edgeStyle=none;shape=connector;rounded=0;orthogonalLoop=1;jettySize=auto;html=1;exitX=0.5;exitY=0;exitDx=0;exitDy=0;labelBackgroundColor=default;strokeColor=default;fontFamily=Helvetica;fontSize=11;fontColor=default;startArrow=ERzeroToMany;startFill=0;endArrow=ERone;endFill=0;" parent="1" source="DV9kczMkqCCmKIpBtvKd-50" target="DV9kczMkqCCmKIpBtvKd-170" edge="1">
          <mxGeometry relative="1" as="geometry" />
        </mxCell>
        <mxCell id="DV9kczMkqCCmKIpBtvKd-50" value="movies_movie" style="shape=table;startSize=30;container=1;collapsible=1;childLayout=tableLayout;fixedRows=1;rowLines=0;fontStyle=1;align=center;resizeLast=1;" parent="1" vertex="1">
          <mxGeometry x="580" y="277" width="210" height="330" as="geometry" />
        </mxCell>
        <mxCell id="DV9kczMkqCCmKIpBtvKd-54" value="" style="shape=tableRow;horizontal=0;startSize=0;swimlaneHead=0;swimlaneBody=0;fillColor=none;collapsible=0;dropTarget=0;points=[[0,0.5],[1,0.5]];portConstraint=eastwest;top=0;left=0;right=0;bottom=1;" parent="DV9kczMkqCCmKIpBtvKd-50" vertex="1">
          <mxGeometry y="30" width="210" height="30" as="geometry" />
        </mxCell>
        <mxCell id="DV9kczMkqCCmKIpBtvKd-55" value="id" style="shape=partialRectangle;connectable=0;fillColor=none;top=0;left=0;bottom=0;right=0;fontStyle=1;overflow=hidden;" parent="DV9kczMkqCCmKIpBtvKd-54" vertex="1">
          <mxGeometry width="120" height="30" as="geometry">
            <mxRectangle width="120" height="30" as="alternateBounds" />
          </mxGeometry>
        </mxCell>
        <mxCell id="DV9kczMkqCCmKIpBtvKd-56" value="integer" style="shape=partialRectangle;connectable=0;fillColor=none;top=0;left=0;bottom=0;right=0;align=left;spacingLeft=6;fontStyle=5;overflow=hidden;" parent="DV9kczMkqCCmKIpBtvKd-54" vertex="1">
          <mxGeometry x="120" width="90" height="30" as="geometry">
            <mxRectangle width="90" height="30" as="alternateBounds" />
          </mxGeometry>
        </mxCell>
        <mxCell id="DV9kczMkqCCmKIpBtvKd-57" value="" style="shape=tableRow;horizontal=0;startSize=0;swimlaneHead=0;swimlaneBody=0;fillColor=none;collapsible=0;dropTarget=0;points=[[0,0.5],[1,0.5]];portConstraint=eastwest;top=0;left=0;right=0;bottom=0;" parent="DV9kczMkqCCmKIpBtvKd-50" vertex="1">
          <mxGeometry y="60" width="210" height="30" as="geometry" />
        </mxCell>
        <mxCell id="DV9kczMkqCCmKIpBtvKd-58" value="title" style="shape=partialRectangle;connectable=0;fillColor=none;top=0;left=0;bottom=0;right=0;editable=1;overflow=hidden;" parent="DV9kczMkqCCmKIpBtvKd-57" vertex="1">
          <mxGeometry width="120" height="30" as="geometry">
            <mxRectangle width="120" height="30" as="alternateBounds" />
          </mxGeometry>
        </mxCell>
        <mxCell id="DV9kczMkqCCmKIpBtvKd-59" value="varchar(30)" style="shape=partialRectangle;connectable=0;fillColor=none;top=0;left=0;bottom=0;right=0;align=left;spacingLeft=6;overflow=hidden;" parent="DV9kczMkqCCmKIpBtvKd-57" vertex="1">
          <mxGeometry x="120" width="90" height="30" as="geometry">
            <mxRectangle width="90" height="30" as="alternateBounds" />
          </mxGeometry>
        </mxCell>
        <mxCell id="DV9kczMkqCCmKIpBtvKd-106" value="" style="shape=tableRow;horizontal=0;startSize=0;swimlaneHead=0;swimlaneBody=0;fillColor=none;collapsible=0;dropTarget=0;points=[[0,0.5],[1,0.5]];portConstraint=eastwest;top=0;left=0;right=0;bottom=0;" parent="DV9kczMkqCCmKIpBtvKd-50" vertex="1">
          <mxGeometry y="90" width="210" height="30" as="geometry" />
        </mxCell>
        <mxCell id="DV9kczMkqCCmKIpBtvKd-107" value="release_date" style="shape=partialRectangle;connectable=0;fillColor=none;top=0;left=0;bottom=0;right=0;editable=1;overflow=hidden;" parent="DV9kczMkqCCmKIpBtvKd-106" vertex="1">
          <mxGeometry width="120" height="30" as="geometry">
            <mxRectangle width="120" height="30" as="alternateBounds" />
          </mxGeometry>
        </mxCell>
        <mxCell id="DV9kczMkqCCmKIpBtvKd-108" value="date" style="shape=partialRectangle;connectable=0;fillColor=none;top=0;left=0;bottom=0;right=0;align=left;spacingLeft=6;overflow=hidden;" parent="DV9kczMkqCCmKIpBtvKd-106" vertex="1">
          <mxGeometry x="120" width="90" height="30" as="geometry">
            <mxRectangle width="90" height="30" as="alternateBounds" />
          </mxGeometry>
        </mxCell>
        <mxCell id="DV9kczMkqCCmKIpBtvKd-103" value="" style="shape=tableRow;horizontal=0;startSize=0;swimlaneHead=0;swimlaneBody=0;fillColor=none;collapsible=0;dropTarget=0;points=[[0,0.5],[1,0.5]];portConstraint=eastwest;top=0;left=0;right=0;bottom=0;" parent="DV9kczMkqCCmKIpBtvKd-50" vertex="1">
          <mxGeometry y="120" width="210" height="30" as="geometry" />
        </mxCell>
        <mxCell id="DV9kczMkqCCmKIpBtvKd-104" value="overview" style="shape=partialRectangle;connectable=0;fillColor=none;top=0;left=0;bottom=0;right=0;editable=1;overflow=hidden;" parent="DV9kczMkqCCmKIpBtvKd-103" vertex="1">
          <mxGeometry width="120" height="30" as="geometry">
            <mxRectangle width="120" height="30" as="alternateBounds" />
          </mxGeometry>
        </mxCell>
        <mxCell id="DV9kczMkqCCmKIpBtvKd-105" value="text" style="shape=partialRectangle;connectable=0;fillColor=none;top=0;left=0;bottom=0;right=0;align=left;spacingLeft=6;overflow=hidden;" parent="DV9kczMkqCCmKIpBtvKd-103" vertex="1">
          <mxGeometry x="120" width="90" height="30" as="geometry">
            <mxRectangle width="90" height="30" as="alternateBounds" />
          </mxGeometry>
        </mxCell>
        <mxCell id="DV9kczMkqCCmKIpBtvKd-120" value="" style="shape=tableRow;horizontal=0;startSize=0;swimlaneHead=0;swimlaneBody=0;fillColor=none;collapsible=0;dropTarget=0;points=[[0,0.5],[1,0.5]];portConstraint=eastwest;top=0;left=0;right=0;bottom=0;" parent="DV9kczMkqCCmKIpBtvKd-50" vertex="1">
          <mxGeometry y="150" width="210" height="30" as="geometry" />
        </mxCell>
        <mxCell id="DV9kczMkqCCmKIpBtvKd-121" value="vote_average" style="shape=partialRectangle;connectable=0;fillColor=none;top=0;left=0;bottom=0;right=0;editable=1;overflow=hidden;" parent="DV9kczMkqCCmKIpBtvKd-120" vertex="1">
          <mxGeometry width="120" height="30" as="geometry">
            <mxRectangle width="120" height="30" as="alternateBounds" />
          </mxGeometry>
        </mxCell>
        <mxCell id="DV9kczMkqCCmKIpBtvKd-122" value="real" style="shape=partialRectangle;connectable=0;fillColor=none;top=0;left=0;bottom=0;right=0;align=left;spacingLeft=6;overflow=hidden;" parent="DV9kczMkqCCmKIpBtvKd-120" vertex="1">
          <mxGeometry x="120" width="90" height="30" as="geometry">
            <mxRectangle width="90" height="30" as="alternateBounds" />
          </mxGeometry>
        </mxCell>
        <mxCell id="DV9kczMkqCCmKIpBtvKd-123" value="" style="shape=tableRow;horizontal=0;startSize=0;swimlaneHead=0;swimlaneBody=0;fillColor=none;collapsible=0;dropTarget=0;points=[[0,0.5],[1,0.5]];portConstraint=eastwest;top=0;left=0;right=0;bottom=0;" parent="DV9kczMkqCCmKIpBtvKd-50" vertex="1">
          <mxGeometry y="180" width="210" height="30" as="geometry" />
        </mxCell>
        <mxCell id="DV9kczMkqCCmKIpBtvKd-124" value="runtime" style="shape=partialRectangle;connectable=0;fillColor=none;top=0;left=0;bottom=0;right=0;editable=1;overflow=hidden;" parent="DV9kczMkqCCmKIpBtvKd-123" vertex="1">
          <mxGeometry width="120" height="30" as="geometry">
            <mxRectangle width="120" height="30" as="alternateBounds" />
          </mxGeometry>
        </mxCell>
        <mxCell id="DV9kczMkqCCmKIpBtvKd-125" value="time" style="shape=partialRectangle;connectable=0;fillColor=none;top=0;left=0;bottom=0;right=0;align=left;spacingLeft=6;overflow=hidden;" parent="DV9kczMkqCCmKIpBtvKd-123" vertex="1">
          <mxGeometry x="120" width="90" height="30" as="geometry">
            <mxRectangle width="90" height="30" as="alternateBounds" />
          </mxGeometry>
        </mxCell>
        <mxCell id="DV9kczMkqCCmKIpBtvKd-126" value="" style="shape=tableRow;horizontal=0;startSize=0;swimlaneHead=0;swimlaneBody=0;fillColor=none;collapsible=0;dropTarget=0;points=[[0,0.5],[1,0.5]];portConstraint=eastwest;top=0;left=0;right=0;bottom=0;" parent="DV9kczMkqCCmKIpBtvKd-50" vertex="1">
          <mxGeometry y="210" width="210" height="30" as="geometry" />
        </mxCell>
        <mxCell id="DV9kczMkqCCmKIpBtvKd-127" value="genres" style="shape=partialRectangle;connectable=0;fillColor=none;top=0;left=0;bottom=0;right=0;editable=1;overflow=hidden;" parent="DV9kczMkqCCmKIpBtvKd-126" vertex="1">
          <mxGeometry width="120" height="30" as="geometry">
            <mxRectangle width="120" height="30" as="alternateBounds" />
          </mxGeometry>
        </mxCell>
        <mxCell id="DV9kczMkqCCmKIpBtvKd-128" value="array" style="shape=partialRectangle;connectable=0;fillColor=none;top=0;left=0;bottom=0;right=0;align=left;spacingLeft=6;overflow=hidden;" parent="DV9kczMkqCCmKIpBtvKd-126" vertex="1">
          <mxGeometry x="120" width="90" height="30" as="geometry">
            <mxRectangle width="90" height="30" as="alternateBounds" />
          </mxGeometry>
        </mxCell>
        <mxCell id="DV9kczMkqCCmKIpBtvKd-129" value="" style="shape=tableRow;horizontal=0;startSize=0;swimlaneHead=0;swimlaneBody=0;fillColor=none;collapsible=0;dropTarget=0;points=[[0,0.5],[1,0.5]];portConstraint=eastwest;top=0;left=0;right=0;bottom=0;" parent="DV9kczMkqCCmKIpBtvKd-50" vertex="1">
          <mxGeometry y="240" width="210" height="30" as="geometry" />
        </mxCell>
        <mxCell id="DV9kczMkqCCmKIpBtvKd-130" value="popularuty" style="shape=partialRectangle;connectable=0;fillColor=none;top=0;left=0;bottom=0;right=0;editable=1;overflow=hidden;" parent="DV9kczMkqCCmKIpBtvKd-129" vertex="1">
          <mxGeometry width="120" height="30" as="geometry">
            <mxRectangle width="120" height="30" as="alternateBounds" />
          </mxGeometry>
        </mxCell>
        <mxCell id="DV9kczMkqCCmKIpBtvKd-131" value="integer" style="shape=partialRectangle;connectable=0;fillColor=none;top=0;left=0;bottom=0;right=0;align=left;spacingLeft=6;overflow=hidden;" parent="DV9kczMkqCCmKIpBtvKd-129" vertex="1">
          <mxGeometry x="120" width="90" height="30" as="geometry">
            <mxRectangle width="90" height="30" as="alternateBounds" />
          </mxGeometry>
        </mxCell>
        <mxCell id="DV9kczMkqCCmKIpBtvKd-132" value="" style="shape=tableRow;horizontal=0;startSize=0;swimlaneHead=0;swimlaneBody=0;fillColor=none;collapsible=0;dropTarget=0;points=[[0,0.5],[1,0.5]];portConstraint=eastwest;top=0;left=0;right=0;bottom=0;" parent="DV9kczMkqCCmKIpBtvKd-50" vertex="1">
          <mxGeometry y="270" width="210" height="30" as="geometry" />
        </mxCell>
        <mxCell id="DV9kczMkqCCmKIpBtvKd-133" value="poster_path" style="shape=partialRectangle;connectable=0;fillColor=none;top=0;left=0;bottom=0;right=0;editable=1;overflow=hidden;" parent="DV9kczMkqCCmKIpBtvKd-132" vertex="1">
          <mxGeometry width="120" height="30" as="geometry">
            <mxRectangle width="120" height="30" as="alternateBounds" />
          </mxGeometry>
        </mxCell>
        <mxCell id="DV9kczMkqCCmKIpBtvKd-134" value="varchar(200)" style="shape=partialRectangle;connectable=0;fillColor=none;top=0;left=0;bottom=0;right=0;align=left;spacingLeft=6;overflow=hidden;" parent="DV9kczMkqCCmKIpBtvKd-132" vertex="1">
          <mxGeometry x="120" width="90" height="30" as="geometry">
            <mxRectangle width="90" height="30" as="alternateBounds" />
          </mxGeometry>
        </mxCell>
        <mxCell id="DV9kczMkqCCmKIpBtvKd-60" value="" style="shape=tableRow;horizontal=0;startSize=0;swimlaneHead=0;swimlaneBody=0;fillColor=none;collapsible=0;dropTarget=0;points=[[0,0.5],[1,0.5]];portConstraint=eastwest;top=0;left=0;right=0;bottom=0;" parent="DV9kczMkqCCmKIpBtvKd-50" vertex="1">
          <mxGeometry y="300" width="210" height="30" as="geometry" />
        </mxCell>
        <mxCell id="DV9kczMkqCCmKIpBtvKd-61" value="production_countries" style="shape=partialRectangle;connectable=0;fillColor=none;top=0;left=0;bottom=0;right=0;editable=1;overflow=hidden;" parent="DV9kczMkqCCmKIpBtvKd-60" vertex="1">
          <mxGeometry width="120" height="30" as="geometry">
            <mxRectangle width="120" height="30" as="alternateBounds" />
          </mxGeometry>
        </mxCell>
        <mxCell id="DV9kczMkqCCmKIpBtvKd-62" value="array" style="shape=partialRectangle;connectable=0;fillColor=none;top=0;left=0;bottom=0;right=0;align=left;spacingLeft=6;overflow=hidden;" parent="DV9kczMkqCCmKIpBtvKd-60" vertex="1">
          <mxGeometry x="120" width="90" height="30" as="geometry">
            <mxRectangle width="90" height="30" as="alternateBounds" />
          </mxGeometry>
        </mxCell>
        <mxCell id="DV9kczMkqCCmKIpBtvKd-82" value="movies_movie_like_users" style="shape=table;startSize=30;container=1;collapsible=1;childLayout=tableLayout;fixedRows=1;rowLines=0;fontStyle=1;align=center;resizeLast=1;strokeColor=#000000;fontFamily=Helvetica;fontSize=11;fontColor=default;" parent="1" vertex="1">
          <mxGeometry x="355" y="540" width="160" height="120" as="geometry" />
        </mxCell>
        <mxCell id="DV9kczMkqCCmKIpBtvKd-86" value="" style="shape=tableRow;horizontal=0;startSize=0;swimlaneHead=0;swimlaneBody=0;fillColor=none;collapsible=0;dropTarget=0;points=[[0,0.5],[1,0.5]];portConstraint=eastwest;top=0;left=0;right=0;bottom=1;strokeColor=#000000;fontFamily=Helvetica;fontSize=11;fontColor=default;" parent="DV9kczMkqCCmKIpBtvKd-82" vertex="1">
          <mxGeometry y="30" width="160" height="30" as="geometry" />
        </mxCell>
        <mxCell id="DV9kczMkqCCmKIpBtvKd-87" value="id" style="shape=partialRectangle;connectable=0;fillColor=none;top=0;left=0;bottom=0;right=0;fontStyle=1;overflow=hidden;strokeColor=#000000;fontFamily=Helvetica;fontSize=11;fontColor=default;" parent="DV9kczMkqCCmKIpBtvKd-86" vertex="1">
          <mxGeometry width="60" height="30" as="geometry">
            <mxRectangle width="60" height="30" as="alternateBounds" />
          </mxGeometry>
        </mxCell>
        <mxCell id="DV9kczMkqCCmKIpBtvKd-88" value="integer" style="shape=partialRectangle;connectable=0;fillColor=none;top=0;left=0;bottom=0;right=0;align=left;spacingLeft=6;fontStyle=5;overflow=hidden;strokeColor=#000000;fontFamily=Helvetica;fontSize=11;fontColor=default;" parent="DV9kczMkqCCmKIpBtvKd-86" vertex="1">
          <mxGeometry x="60" width="100" height="30" as="geometry">
            <mxRectangle width="100" height="30" as="alternateBounds" />
          </mxGeometry>
        </mxCell>
        <mxCell id="DV9kczMkqCCmKIpBtvKd-89" value="" style="shape=tableRow;horizontal=0;startSize=0;swimlaneHead=0;swimlaneBody=0;fillColor=none;collapsible=0;dropTarget=0;points=[[0,0.5],[1,0.5]];portConstraint=eastwest;top=0;left=0;right=0;bottom=0;strokeColor=#000000;fontFamily=Helvetica;fontSize=11;fontColor=default;" parent="DV9kczMkqCCmKIpBtvKd-82" vertex="1">
          <mxGeometry y="60" width="160" height="30" as="geometry" />
        </mxCell>
        <mxCell id="DV9kczMkqCCmKIpBtvKd-90" value="user_id" style="shape=partialRectangle;connectable=0;fillColor=none;top=0;left=0;bottom=0;right=0;editable=1;overflow=hidden;strokeColor=#000000;fontFamily=Helvetica;fontSize=11;fontColor=default;" parent="DV9kczMkqCCmKIpBtvKd-89" vertex="1">
          <mxGeometry width="60" height="30" as="geometry">
            <mxRectangle width="60" height="30" as="alternateBounds" />
          </mxGeometry>
        </mxCell>
        <mxCell id="DV9kczMkqCCmKIpBtvKd-91" value="integer" style="shape=partialRectangle;connectable=0;fillColor=none;top=0;left=0;bottom=0;right=0;align=left;spacingLeft=6;overflow=hidden;strokeColor=#000000;fontFamily=Helvetica;fontSize=11;fontColor=default;" parent="DV9kczMkqCCmKIpBtvKd-89" vertex="1">
          <mxGeometry x="60" width="100" height="30" as="geometry">
            <mxRectangle width="100" height="30" as="alternateBounds" />
          </mxGeometry>
        </mxCell>
        <mxCell id="DV9kczMkqCCmKIpBtvKd-92" value="" style="shape=tableRow;horizontal=0;startSize=0;swimlaneHead=0;swimlaneBody=0;fillColor=none;collapsible=0;dropTarget=0;points=[[0,0.5],[1,0.5]];portConstraint=eastwest;top=0;left=0;right=0;bottom=0;strokeColor=#000000;fontFamily=Helvetica;fontSize=11;fontColor=default;" parent="DV9kczMkqCCmKIpBtvKd-82" vertex="1">
          <mxGeometry y="90" width="160" height="30" as="geometry" />
        </mxCell>
        <mxCell id="DV9kczMkqCCmKIpBtvKd-93" value="movie_id" style="shape=partialRectangle;connectable=0;fillColor=none;top=0;left=0;bottom=0;right=0;editable=1;overflow=hidden;strokeColor=#000000;fontFamily=Helvetica;fontSize=11;fontColor=default;" parent="DV9kczMkqCCmKIpBtvKd-92" vertex="1">
          <mxGeometry width="60" height="30" as="geometry">
            <mxRectangle width="60" height="30" as="alternateBounds" />
          </mxGeometry>
        </mxCell>
        <mxCell id="DV9kczMkqCCmKIpBtvKd-94" value="integer" style="shape=partialRectangle;connectable=0;fillColor=none;top=0;left=0;bottom=0;right=0;align=left;spacingLeft=6;overflow=hidden;strokeColor=#000000;fontFamily=Helvetica;fontSize=11;fontColor=default;" parent="DV9kczMkqCCmKIpBtvKd-92" vertex="1">
          <mxGeometry x="60" width="100" height="30" as="geometry">
            <mxRectangle width="100" height="30" as="alternateBounds" />
          </mxGeometry>
        </mxCell>
        <mxCell id="DV9kczMkqCCmKIpBtvKd-135" value="movies_movie_genres" style="shape=table;startSize=38;container=1;collapsible=1;childLayout=tableLayout;fixedRows=1;rowLines=0;fontStyle=1;align=center;resizeLast=1;strokeColor=#000000;fontFamily=Helvetica;fontSize=11;fontColor=default;" parent="1" vertex="1">
          <mxGeometry x="610" y="102" width="150" height="128" as="geometry" />
        </mxCell>
        <mxCell id="DV9kczMkqCCmKIpBtvKd-139" value="" style="shape=tableRow;horizontal=0;startSize=0;swimlaneHead=0;swimlaneBody=0;fillColor=none;collapsible=0;dropTarget=0;points=[[0,0.5],[1,0.5]];portConstraint=eastwest;top=0;left=0;right=0;bottom=1;strokeColor=#000000;fontFamily=Helvetica;fontSize=11;fontColor=default;" parent="DV9kczMkqCCmKIpBtvKd-135" vertex="1">
          <mxGeometry y="38" width="150" height="30" as="geometry" />
        </mxCell>
        <mxCell id="DV9kczMkqCCmKIpBtvKd-140" value="id" style="shape=partialRectangle;connectable=0;fillColor=none;top=0;left=0;bottom=0;right=0;fontStyle=1;overflow=hidden;strokeColor=#000000;fontFamily=Helvetica;fontSize=11;fontColor=default;" parent="DV9kczMkqCCmKIpBtvKd-139" vertex="1">
          <mxGeometry width="60" height="30" as="geometry">
            <mxRectangle width="60" height="30" as="alternateBounds" />
          </mxGeometry>
        </mxCell>
        <mxCell id="DV9kczMkqCCmKIpBtvKd-141" value="integer" style="shape=partialRectangle;connectable=0;fillColor=none;top=0;left=0;bottom=0;right=0;align=left;spacingLeft=6;fontStyle=5;overflow=hidden;strokeColor=#000000;fontFamily=Helvetica;fontSize=11;fontColor=default;" parent="DV9kczMkqCCmKIpBtvKd-139" vertex="1">
          <mxGeometry x="60" width="90" height="30" as="geometry">
            <mxRectangle width="90" height="30" as="alternateBounds" />
          </mxGeometry>
        </mxCell>
        <mxCell id="DV9kczMkqCCmKIpBtvKd-142" value="" style="shape=tableRow;horizontal=0;startSize=0;swimlaneHead=0;swimlaneBody=0;fillColor=none;collapsible=0;dropTarget=0;points=[[0,0.5],[1,0.5]];portConstraint=eastwest;top=0;left=0;right=0;bottom=0;strokeColor=#000000;fontFamily=Helvetica;fontSize=11;fontColor=default;" parent="DV9kczMkqCCmKIpBtvKd-135" vertex="1">
          <mxGeometry y="68" width="150" height="30" as="geometry" />
        </mxCell>
        <mxCell id="DV9kczMkqCCmKIpBtvKd-143" value="movie_id" style="shape=partialRectangle;connectable=0;fillColor=none;top=0;left=0;bottom=0;right=0;editable=1;overflow=hidden;strokeColor=#000000;fontFamily=Helvetica;fontSize=11;fontColor=default;" parent="DV9kczMkqCCmKIpBtvKd-142" vertex="1">
          <mxGeometry width="60" height="30" as="geometry">
            <mxRectangle width="60" height="30" as="alternateBounds" />
          </mxGeometry>
        </mxCell>
        <mxCell id="DV9kczMkqCCmKIpBtvKd-144" value="integer" style="shape=partialRectangle;connectable=0;fillColor=none;top=0;left=0;bottom=0;right=0;align=left;spacingLeft=6;overflow=hidden;strokeColor=#000000;fontFamily=Helvetica;fontSize=11;fontColor=default;" parent="DV9kczMkqCCmKIpBtvKd-142" vertex="1">
          <mxGeometry x="60" width="90" height="30" as="geometry">
            <mxRectangle width="90" height="30" as="alternateBounds" />
          </mxGeometry>
        </mxCell>
        <mxCell id="DV9kczMkqCCmKIpBtvKd-170" value="" style="shape=tableRow;horizontal=0;startSize=0;swimlaneHead=0;swimlaneBody=0;fillColor=none;collapsible=0;dropTarget=0;points=[[0,0.5],[1,0.5]];portConstraint=eastwest;top=0;left=0;right=0;bottom=0;strokeColor=#000000;fontFamily=Helvetica;fontSize=11;fontColor=default;" parent="DV9kczMkqCCmKIpBtvKd-135" vertex="1">
          <mxGeometry y="98" width="150" height="30" as="geometry" />
        </mxCell>
        <mxCell id="DV9kczMkqCCmKIpBtvKd-171" value="genre_id" style="shape=partialRectangle;connectable=0;fillColor=none;top=0;left=0;bottom=0;right=0;editable=1;overflow=hidden;strokeColor=#000000;fontFamily=Helvetica;fontSize=11;fontColor=default;" parent="DV9kczMkqCCmKIpBtvKd-170" vertex="1">
          <mxGeometry width="60" height="30" as="geometry">
            <mxRectangle width="60" height="30" as="alternateBounds" />
          </mxGeometry>
        </mxCell>
        <mxCell id="DV9kczMkqCCmKIpBtvKd-172" value="integer" style="shape=partialRectangle;connectable=0;fillColor=none;top=0;left=0;bottom=0;right=0;align=left;spacingLeft=6;overflow=hidden;strokeColor=#000000;fontFamily=Helvetica;fontSize=11;fontColor=default;" parent="DV9kczMkqCCmKIpBtvKd-170" vertex="1">
          <mxGeometry x="60" width="90" height="30" as="geometry">
            <mxRectangle width="90" height="30" as="alternateBounds" />
          </mxGeometry>
        </mxCell>
        <mxCell id="DV9kczMkqCCmKIpBtvKd-148" value="accounts_user" style="shape=table;startSize=30;container=1;collapsible=1;childLayout=tableLayout;fixedRows=1;rowLines=0;fontStyle=1;align=center;resizeLast=1;labelBorderColor=none;strokeColor=#000000;fontFamily=Helvetica;fontSize=11;fontColor=default;" parent="1" vertex="1">
          <mxGeometry x="60" y="330" width="180" height="360" as="geometry" />
        </mxCell>
        <mxCell id="DV9kczMkqCCmKIpBtvKd-152" value="" style="shape=tableRow;horizontal=0;startSize=0;swimlaneHead=0;swimlaneBody=0;fillColor=none;collapsible=0;dropTarget=0;points=[[0,0.5],[1,0.5]];portConstraint=eastwest;top=0;left=0;right=0;bottom=1;labelBorderColor=none;strokeColor=#000000;fontFamily=Helvetica;fontSize=11;fontColor=default;" parent="DV9kczMkqCCmKIpBtvKd-148" vertex="1">
          <mxGeometry y="30" width="180" height="30" as="geometry" />
        </mxCell>
        <mxCell id="DV9kczMkqCCmKIpBtvKd-153" value="id" style="shape=partialRectangle;connectable=0;fillColor=none;top=0;left=0;bottom=0;right=0;fontStyle=1;overflow=hidden;labelBorderColor=none;strokeColor=#000000;fontFamily=Helvetica;fontSize=11;fontColor=default;" parent="DV9kczMkqCCmKIpBtvKd-152" vertex="1">
          <mxGeometry width="90" height="30" as="geometry">
            <mxRectangle width="90" height="30" as="alternateBounds" />
          </mxGeometry>
        </mxCell>
        <mxCell id="DV9kczMkqCCmKIpBtvKd-154" value="integer" style="shape=partialRectangle;connectable=0;fillColor=none;top=0;left=0;bottom=0;right=0;align=left;spacingLeft=6;fontStyle=5;overflow=hidden;labelBorderColor=none;strokeColor=#000000;fontFamily=Helvetica;fontSize=11;fontColor=default;" parent="DV9kczMkqCCmKIpBtvKd-152" vertex="1">
          <mxGeometry x="90" width="90" height="30" as="geometry">
            <mxRectangle width="90" height="30" as="alternateBounds" />
          </mxGeometry>
        </mxCell>
        <mxCell id="DV9kczMkqCCmKIpBtvKd-155" value="" style="shape=tableRow;horizontal=0;startSize=0;swimlaneHead=0;swimlaneBody=0;fillColor=none;collapsible=0;dropTarget=0;points=[[0,0.5],[1,0.5]];portConstraint=eastwest;top=0;left=0;right=0;bottom=0;labelBorderColor=none;strokeColor=#000000;fontFamily=Helvetica;fontSize=11;fontColor=default;" parent="DV9kczMkqCCmKIpBtvKd-148" vertex="1">
          <mxGeometry y="60" width="180" height="30" as="geometry" />
        </mxCell>
        <mxCell id="DV9kczMkqCCmKIpBtvKd-156" value="password" style="shape=partialRectangle;connectable=0;fillColor=none;top=0;left=0;bottom=0;right=0;editable=1;overflow=hidden;labelBorderColor=none;strokeColor=#000000;fontFamily=Helvetica;fontSize=11;fontColor=default;" parent="DV9kczMkqCCmKIpBtvKd-155" vertex="1">
          <mxGeometry width="90" height="30" as="geometry">
            <mxRectangle width="90" height="30" as="alternateBounds" />
          </mxGeometry>
        </mxCell>
        <mxCell id="DV9kczMkqCCmKIpBtvKd-157" value="varchar(18)" style="shape=partialRectangle;connectable=0;fillColor=none;top=0;left=0;bottom=0;right=0;align=left;spacingLeft=6;overflow=hidden;labelBorderColor=none;strokeColor=#000000;fontFamily=Helvetica;fontSize=11;fontColor=default;" parent="DV9kczMkqCCmKIpBtvKd-155" vertex="1">
          <mxGeometry x="90" width="90" height="30" as="geometry">
            <mxRectangle width="90" height="30" as="alternateBounds" />
          </mxGeometry>
        </mxCell>
        <mxCell id="DV9kczMkqCCmKIpBtvKd-161" value="" style="shape=tableRow;horizontal=0;startSize=0;swimlaneHead=0;swimlaneBody=0;fillColor=none;collapsible=0;dropTarget=0;points=[[0,0.5],[1,0.5]];portConstraint=eastwest;top=0;left=0;right=0;bottom=0;labelBorderColor=none;strokeColor=#000000;fontFamily=Helvetica;fontSize=11;fontColor=default;" parent="DV9kczMkqCCmKIpBtvKd-148" vertex="1">
          <mxGeometry y="90" width="180" height="30" as="geometry" />
        </mxCell>
        <mxCell id="DV9kczMkqCCmKIpBtvKd-162" value="user_name" style="shape=partialRectangle;connectable=0;fillColor=none;top=0;left=0;bottom=0;right=0;editable=1;overflow=hidden;labelBorderColor=none;strokeColor=#000000;fontFamily=Helvetica;fontSize=11;fontColor=default;" parent="DV9kczMkqCCmKIpBtvKd-161" vertex="1">
          <mxGeometry width="90" height="30" as="geometry">
            <mxRectangle width="90" height="30" as="alternateBounds" />
          </mxGeometry>
        </mxCell>
        <mxCell id="DV9kczMkqCCmKIpBtvKd-163" value="varchar(150)" style="shape=partialRectangle;connectable=0;fillColor=none;top=0;left=0;bottom=0;right=0;align=left;spacingLeft=6;overflow=hidden;labelBorderColor=none;strokeColor=#000000;fontFamily=Helvetica;fontSize=11;fontColor=default;" parent="DV9kczMkqCCmKIpBtvKd-161" vertex="1">
          <mxGeometry x="90" width="90" height="30" as="geometry">
            <mxRectangle width="90" height="30" as="alternateBounds" />
          </mxGeometry>
        </mxCell>
        <mxCell id="DV9kczMkqCCmKIpBtvKd-158" value="" style="shape=tableRow;horizontal=0;startSize=0;swimlaneHead=0;swimlaneBody=0;fillColor=none;collapsible=0;dropTarget=0;points=[[0,0.5],[1,0.5]];portConstraint=eastwest;top=0;left=0;right=0;bottom=0;labelBorderColor=none;strokeColor=#000000;fontFamily=Helvetica;fontSize=11;fontColor=default;" parent="DV9kczMkqCCmKIpBtvKd-148" vertex="1">
          <mxGeometry y="120" width="180" height="30" as="geometry" />
        </mxCell>
        <mxCell id="DV9kczMkqCCmKIpBtvKd-159" value="email" style="shape=partialRectangle;connectable=0;fillColor=none;top=0;left=0;bottom=0;right=0;editable=1;overflow=hidden;labelBorderColor=none;strokeColor=#000000;fontFamily=Helvetica;fontSize=11;fontColor=default;" parent="DV9kczMkqCCmKIpBtvKd-158" vertex="1">
          <mxGeometry width="90" height="30" as="geometry">
            <mxRectangle width="90" height="30" as="alternateBounds" />
          </mxGeometry>
        </mxCell>
        <mxCell id="DV9kczMkqCCmKIpBtvKd-160" value="varchar(254)" style="shape=partialRectangle;connectable=0;fillColor=none;top=0;left=0;bottom=0;right=0;align=left;spacingLeft=6;overflow=hidden;labelBorderColor=none;strokeColor=#000000;fontFamily=Helvetica;fontSize=11;fontColor=default;" parent="DV9kczMkqCCmKIpBtvKd-158" vertex="1">
          <mxGeometry x="90" width="90" height="30" as="geometry">
            <mxRectangle width="90" height="30" as="alternateBounds" />
          </mxGeometry>
        </mxCell>
        <mxCell id="DV9kczMkqCCmKIpBtvKd-176" value="" style="shape=tableRow;horizontal=0;startSize=0;swimlaneHead=0;swimlaneBody=0;fillColor=none;collapsible=0;dropTarget=0;points=[[0,0.5],[1,0.5]];portConstraint=eastwest;top=0;left=0;right=0;bottom=0;labelBorderColor=none;strokeColor=#000000;fontFamily=Helvetica;fontSize=11;fontColor=default;" parent="DV9kczMkqCCmKIpBtvKd-148" vertex="1">
          <mxGeometry y="150" width="180" height="30" as="geometry" />
        </mxCell>
        <mxCell id="DV9kczMkqCCmKIpBtvKd-177" value="is_superuser" style="shape=partialRectangle;connectable=0;fillColor=none;top=0;left=0;bottom=0;right=0;editable=1;overflow=hidden;labelBorderColor=none;strokeColor=#000000;fontFamily=Helvetica;fontSize=11;fontColor=default;" parent="DV9kczMkqCCmKIpBtvKd-176" vertex="1">
          <mxGeometry width="90" height="30" as="geometry">
            <mxRectangle width="90" height="30" as="alternateBounds" />
          </mxGeometry>
        </mxCell>
        <mxCell id="DV9kczMkqCCmKIpBtvKd-178" value="bool" style="shape=partialRectangle;connectable=0;fillColor=none;top=0;left=0;bottom=0;right=0;align=left;spacingLeft=6;overflow=hidden;labelBorderColor=none;strokeColor=#000000;fontFamily=Helvetica;fontSize=11;fontColor=default;" parent="DV9kczMkqCCmKIpBtvKd-176" vertex="1">
          <mxGeometry x="90" width="90" height="30" as="geometry">
            <mxRectangle width="90" height="30" as="alternateBounds" />
          </mxGeometry>
        </mxCell>
        <mxCell id="DV9kczMkqCCmKIpBtvKd-164" value="" style="shape=tableRow;horizontal=0;startSize=0;swimlaneHead=0;swimlaneBody=0;fillColor=none;collapsible=0;dropTarget=0;points=[[0,0.5],[1,0.5]];portConstraint=eastwest;top=0;left=0;right=0;bottom=0;labelBorderColor=none;strokeColor=#000000;fontFamily=Helvetica;fontSize=11;fontColor=default;" parent="DV9kczMkqCCmKIpBtvKd-148" vertex="1">
          <mxGeometry y="180" width="180" height="30" as="geometry" />
        </mxCell>
        <mxCell id="DV9kczMkqCCmKIpBtvKd-165" value="is_staff" style="shape=partialRectangle;connectable=0;fillColor=none;top=0;left=0;bottom=0;right=0;editable=1;overflow=hidden;labelBorderColor=none;strokeColor=#000000;fontFamily=Helvetica;fontSize=11;fontColor=default;" parent="DV9kczMkqCCmKIpBtvKd-164" vertex="1">
          <mxGeometry width="90" height="30" as="geometry">
            <mxRectangle width="90" height="30" as="alternateBounds" />
          </mxGeometry>
        </mxCell>
        <mxCell id="DV9kczMkqCCmKIpBtvKd-166" value="bool" style="shape=partialRectangle;connectable=0;fillColor=none;top=0;left=0;bottom=0;right=0;align=left;spacingLeft=6;overflow=hidden;labelBorderColor=none;strokeColor=#000000;fontFamily=Helvetica;fontSize=11;fontColor=default;" parent="DV9kczMkqCCmKIpBtvKd-164" vertex="1">
          <mxGeometry x="90" width="90" height="30" as="geometry">
            <mxRectangle width="90" height="30" as="alternateBounds" />
          </mxGeometry>
        </mxCell>
        <mxCell id="DV9kczMkqCCmKIpBtvKd-167" value="" style="shape=tableRow;horizontal=0;startSize=0;swimlaneHead=0;swimlaneBody=0;fillColor=none;collapsible=0;dropTarget=0;points=[[0,0.5],[1,0.5]];portConstraint=eastwest;top=0;left=0;right=0;bottom=0;labelBorderColor=none;strokeColor=#000000;fontFamily=Helvetica;fontSize=11;fontColor=default;" parent="DV9kczMkqCCmKIpBtvKd-148" vertex="1">
          <mxGeometry y="210" width="180" height="30" as="geometry" />
        </mxCell>
        <mxCell id="DV9kczMkqCCmKIpBtvKd-168" value="is_axtive" style="shape=partialRectangle;connectable=0;fillColor=none;top=0;left=0;bottom=0;right=0;editable=1;overflow=hidden;labelBorderColor=none;strokeColor=#000000;fontFamily=Helvetica;fontSize=11;fontColor=default;" parent="DV9kczMkqCCmKIpBtvKd-167" vertex="1">
          <mxGeometry width="90" height="30" as="geometry">
            <mxRectangle width="90" height="30" as="alternateBounds" />
          </mxGeometry>
        </mxCell>
        <mxCell id="DV9kczMkqCCmKIpBtvKd-169" value="bool" style="shape=partialRectangle;connectable=0;fillColor=none;top=0;left=0;bottom=0;right=0;align=left;spacingLeft=6;overflow=hidden;labelBorderColor=none;strokeColor=#000000;fontFamily=Helvetica;fontSize=11;fontColor=default;" parent="DV9kczMkqCCmKIpBtvKd-167" vertex="1">
          <mxGeometry x="90" width="90" height="30" as="geometry">
            <mxRectangle width="90" height="30" as="alternateBounds" />
          </mxGeometry>
        </mxCell>
        <mxCell id="DV9kczMkqCCmKIpBtvKd-180" value="" style="shape=tableRow;horizontal=0;startSize=0;swimlaneHead=0;swimlaneBody=0;fillColor=none;collapsible=0;dropTarget=0;points=[[0,0.5],[1,0.5]];portConstraint=eastwest;top=0;left=0;right=0;bottom=0;labelBorderColor=none;strokeColor=#000000;fontFamily=Helvetica;fontSize=11;fontColor=default;" parent="DV9kczMkqCCmKIpBtvKd-148" vertex="1">
          <mxGeometry y="240" width="180" height="30" as="geometry" />
        </mxCell>
        <mxCell id="DV9kczMkqCCmKIpBtvKd-181" value="last_name" style="shape=partialRectangle;connectable=0;fillColor=none;top=0;left=0;bottom=0;right=0;editable=1;overflow=hidden;labelBorderColor=none;strokeColor=#000000;fontFamily=Helvetica;fontSize=11;fontColor=default;" parent="DV9kczMkqCCmKIpBtvKd-180" vertex="1">
          <mxGeometry width="90" height="30" as="geometry">
            <mxRectangle width="90" height="30" as="alternateBounds" />
          </mxGeometry>
        </mxCell>
        <mxCell id="DV9kczMkqCCmKIpBtvKd-182" value="varchar(150)" style="shape=partialRectangle;connectable=0;fillColor=none;top=0;left=0;bottom=0;right=0;align=left;spacingLeft=6;overflow=hidden;labelBorderColor=none;strokeColor=#000000;fontFamily=Helvetica;fontSize=11;fontColor=default;" parent="DV9kczMkqCCmKIpBtvKd-180" vertex="1">
          <mxGeometry x="90" width="90" height="30" as="geometry">
            <mxRectangle width="90" height="30" as="alternateBounds" />
          </mxGeometry>
        </mxCell>
        <mxCell id="DV9kczMkqCCmKIpBtvKd-183" value="" style="shape=tableRow;horizontal=0;startSize=0;swimlaneHead=0;swimlaneBody=0;fillColor=none;collapsible=0;dropTarget=0;points=[[0,0.5],[1,0.5]];portConstraint=eastwest;top=0;left=0;right=0;bottom=0;labelBorderColor=none;strokeColor=#000000;fontFamily=Helvetica;fontSize=11;fontColor=default;" parent="DV9kczMkqCCmKIpBtvKd-148" vertex="1">
          <mxGeometry y="270" width="180" height="30" as="geometry" />
        </mxCell>
        <mxCell id="DV9kczMkqCCmKIpBtvKd-184" value="first_name" style="shape=partialRectangle;connectable=0;fillColor=none;top=0;left=0;bottom=0;right=0;editable=1;overflow=hidden;labelBorderColor=none;strokeColor=#000000;fontFamily=Helvetica;fontSize=11;fontColor=default;" parent="DV9kczMkqCCmKIpBtvKd-183" vertex="1">
          <mxGeometry width="90" height="30" as="geometry">
            <mxRectangle width="90" height="30" as="alternateBounds" />
          </mxGeometry>
        </mxCell>
        <mxCell id="DV9kczMkqCCmKIpBtvKd-185" value="varchar(150)" style="shape=partialRectangle;connectable=0;fillColor=none;top=0;left=0;bottom=0;right=0;align=left;spacingLeft=6;overflow=hidden;labelBorderColor=none;strokeColor=#000000;fontFamily=Helvetica;fontSize=11;fontColor=default;" parent="DV9kczMkqCCmKIpBtvKd-183" vertex="1">
          <mxGeometry x="90" width="90" height="30" as="geometry">
            <mxRectangle width="90" height="30" as="alternateBounds" />
          </mxGeometry>
        </mxCell>
        <mxCell id="DV9kczMkqCCmKIpBtvKd-189" value="" style="shape=tableRow;horizontal=0;startSize=0;swimlaneHead=0;swimlaneBody=0;fillColor=none;collapsible=0;dropTarget=0;points=[[0,0.5],[1,0.5]];portConstraint=eastwest;top=0;left=0;right=0;bottom=0;labelBorderColor=none;strokeColor=#000000;fontFamily=Helvetica;fontSize=11;fontColor=default;" parent="DV9kczMkqCCmKIpBtvKd-148" vertex="1">
          <mxGeometry y="300" width="180" height="30" as="geometry" />
        </mxCell>
        <mxCell id="DV9kczMkqCCmKIpBtvKd-190" value="date_joined" style="shape=partialRectangle;connectable=0;fillColor=none;top=0;left=0;bottom=0;right=0;editable=1;overflow=hidden;labelBorderColor=none;strokeColor=#000000;fontFamily=Helvetica;fontSize=11;fontColor=default;" parent="DV9kczMkqCCmKIpBtvKd-189" vertex="1">
          <mxGeometry width="90" height="30" as="geometry">
            <mxRectangle width="90" height="30" as="alternateBounds" />
          </mxGeometry>
        </mxCell>
        <mxCell id="DV9kczMkqCCmKIpBtvKd-191" value="datetime" style="shape=partialRectangle;connectable=0;fillColor=none;top=0;left=0;bottom=0;right=0;align=left;spacingLeft=6;overflow=hidden;labelBorderColor=none;strokeColor=#000000;fontFamily=Helvetica;fontSize=11;fontColor=default;" parent="DV9kczMkqCCmKIpBtvKd-189" vertex="1">
          <mxGeometry x="90" width="90" height="30" as="geometry">
            <mxRectangle width="90" height="30" as="alternateBounds" />
          </mxGeometry>
        </mxCell>
        <mxCell id="DV9kczMkqCCmKIpBtvKd-186" value="" style="shape=tableRow;horizontal=0;startSize=0;swimlaneHead=0;swimlaneBody=0;fillColor=none;collapsible=0;dropTarget=0;points=[[0,0.5],[1,0.5]];portConstraint=eastwest;top=0;left=0;right=0;bottom=0;labelBorderColor=none;strokeColor=#000000;fontFamily=Helvetica;fontSize=11;fontColor=default;" parent="DV9kczMkqCCmKIpBtvKd-148" vertex="1">
          <mxGeometry y="330" width="180" height="30" as="geometry" />
        </mxCell>
        <mxCell id="DV9kczMkqCCmKIpBtvKd-187" value="last_login" style="shape=partialRectangle;connectable=0;fillColor=none;top=0;left=0;bottom=0;right=0;editable=1;overflow=hidden;labelBorderColor=none;strokeColor=#000000;fontFamily=Helvetica;fontSize=11;fontColor=default;" parent="DV9kczMkqCCmKIpBtvKd-186" vertex="1">
          <mxGeometry width="90" height="30" as="geometry">
            <mxRectangle width="90" height="30" as="alternateBounds" />
          </mxGeometry>
        </mxCell>
        <mxCell id="DV9kczMkqCCmKIpBtvKd-188" value="datetime" style="shape=partialRectangle;connectable=0;fillColor=none;top=0;left=0;bottom=0;right=0;align=left;spacingLeft=6;overflow=hidden;labelBorderColor=none;strokeColor=#000000;fontFamily=Helvetica;fontSize=11;fontColor=default;" parent="DV9kczMkqCCmKIpBtvKd-186" vertex="1">
          <mxGeometry x="90" width="90" height="30" as="geometry">
            <mxRectangle width="90" height="30" as="alternateBounds" />
          </mxGeometry>
        </mxCell>
        <mxCell id="DV9kczMkqCCmKIpBtvKd-203" style="edgeStyle=none;shape=connector;rounded=0;orthogonalLoop=1;jettySize=auto;html=1;labelBackgroundColor=default;strokeColor=default;fontFamily=Helvetica;fontSize=11;fontColor=default;startArrow=ERzeroToMany;startFill=0;endArrow=ERone;endFill=0;" parent="1" source="DV9kczMkqCCmKIpBtvKd-37" target="DV9kczMkqCCmKIpBtvKd-135" edge="1">
          <mxGeometry relative="1" as="geometry" />
        </mxCell>
        <mxCell id="DV9kczMkqCCmKIpBtvKd-214" value="movies_movie_comment" style="shape=table;startSize=30;container=1;collapsible=1;childLayout=tableLayout;fixedRows=1;rowLines=0;fontStyle=1;align=center;resizeLast=1;labelBorderColor=none;strokeColor=#000000;fontFamily=Helvetica;fontSize=11;fontColor=default;" parent="1" vertex="1">
          <mxGeometry x="360" y="290" width="150" height="210" as="geometry" />
        </mxCell>
        <mxCell id="DV9kczMkqCCmKIpBtvKd-218" value="" style="shape=tableRow;horizontal=0;startSize=0;swimlaneHead=0;swimlaneBody=0;fillColor=none;collapsible=0;dropTarget=0;points=[[0,0.5],[1,0.5]];portConstraint=eastwest;top=0;left=0;right=0;bottom=1;labelBorderColor=none;strokeColor=#000000;fontFamily=Helvetica;fontSize=11;fontColor=default;" parent="DV9kczMkqCCmKIpBtvKd-214" vertex="1">
          <mxGeometry y="30" width="150" height="30" as="geometry" />
        </mxCell>
        <mxCell id="DV9kczMkqCCmKIpBtvKd-219" value="id" style="shape=partialRectangle;connectable=0;fillColor=none;top=0;left=0;bottom=0;right=0;fontStyle=1;overflow=hidden;labelBorderColor=none;strokeColor=#000000;fontFamily=Helvetica;fontSize=11;fontColor=default;" parent="DV9kczMkqCCmKIpBtvKd-218" vertex="1">
          <mxGeometry width="60" height="30" as="geometry">
            <mxRectangle width="60" height="30" as="alternateBounds" />
          </mxGeometry>
        </mxCell>
        <mxCell id="DV9kczMkqCCmKIpBtvKd-220" value="integer" style="shape=partialRectangle;connectable=0;fillColor=none;top=0;left=0;bottom=0;right=0;align=left;spacingLeft=6;fontStyle=5;overflow=hidden;labelBorderColor=none;strokeColor=#000000;fontFamily=Helvetica;fontSize=11;fontColor=default;" parent="DV9kczMkqCCmKIpBtvKd-218" vertex="1">
          <mxGeometry x="60" width="90" height="30" as="geometry">
            <mxRectangle width="90" height="30" as="alternateBounds" />
          </mxGeometry>
        </mxCell>
        <mxCell id="DV9kczMkqCCmKIpBtvKd-230" value="" style="shape=tableRow;horizontal=0;startSize=0;swimlaneHead=0;swimlaneBody=0;fillColor=none;collapsible=0;dropTarget=0;points=[[0,0.5],[1,0.5]];portConstraint=eastwest;top=0;left=0;right=0;bottom=0;labelBorderColor=none;strokeColor=#000000;fontFamily=Helvetica;fontSize=11;fontColor=default;" parent="DV9kczMkqCCmKIpBtvKd-214" vertex="1">
          <mxGeometry y="60" width="150" height="30" as="geometry" />
        </mxCell>
        <mxCell id="DV9kczMkqCCmKIpBtvKd-231" value="content" style="shape=partialRectangle;connectable=0;fillColor=none;top=0;left=0;bottom=0;right=0;editable=1;overflow=hidden;labelBorderColor=none;strokeColor=#000000;fontFamily=Helvetica;fontSize=11;fontColor=default;" parent="DV9kczMkqCCmKIpBtvKd-230" vertex="1">
          <mxGeometry width="60" height="30" as="geometry">
            <mxRectangle width="60" height="30" as="alternateBounds" />
          </mxGeometry>
        </mxCell>
        <mxCell id="DV9kczMkqCCmKIpBtvKd-232" value="text" style="shape=partialRectangle;connectable=0;fillColor=none;top=0;left=0;bottom=0;right=0;align=left;spacingLeft=6;overflow=hidden;labelBorderColor=none;strokeColor=#000000;fontFamily=Helvetica;fontSize=11;fontColor=default;" parent="DV9kczMkqCCmKIpBtvKd-230" vertex="1">
          <mxGeometry x="60" width="90" height="30" as="geometry">
            <mxRectangle width="90" height="30" as="alternateBounds" />
          </mxGeometry>
        </mxCell>
        <mxCell id="DV9kczMkqCCmKIpBtvKd-233" value="" style="shape=tableRow;horizontal=0;startSize=0;swimlaneHead=0;swimlaneBody=0;fillColor=none;collapsible=0;dropTarget=0;points=[[0,0.5],[1,0.5]];portConstraint=eastwest;top=0;left=0;right=0;bottom=0;labelBorderColor=none;strokeColor=#000000;fontFamily=Helvetica;fontSize=11;fontColor=default;" parent="DV9kczMkqCCmKIpBtvKd-214" vertex="1">
          <mxGeometry y="90" width="150" height="30" as="geometry" />
        </mxCell>
        <mxCell id="DV9kczMkqCCmKIpBtvKd-234" value="created_at" style="shape=partialRectangle;connectable=0;fillColor=none;top=0;left=0;bottom=0;right=0;editable=1;overflow=hidden;labelBorderColor=none;strokeColor=#000000;fontFamily=Helvetica;fontSize=11;fontColor=default;" parent="DV9kczMkqCCmKIpBtvKd-233" vertex="1">
          <mxGeometry width="60" height="30" as="geometry">
            <mxRectangle width="60" height="30" as="alternateBounds" />
          </mxGeometry>
        </mxCell>
        <mxCell id="DV9kczMkqCCmKIpBtvKd-235" value="date" style="shape=partialRectangle;connectable=0;fillColor=none;top=0;left=0;bottom=0;right=0;align=left;spacingLeft=6;overflow=hidden;labelBorderColor=none;strokeColor=#000000;fontFamily=Helvetica;fontSize=11;fontColor=default;" parent="DV9kczMkqCCmKIpBtvKd-233" vertex="1">
          <mxGeometry x="60" width="90" height="30" as="geometry">
            <mxRectangle width="90" height="30" as="alternateBounds" />
          </mxGeometry>
        </mxCell>
        <mxCell id="DV9kczMkqCCmKIpBtvKd-227" value="" style="shape=tableRow;horizontal=0;startSize=0;swimlaneHead=0;swimlaneBody=0;fillColor=none;collapsible=0;dropTarget=0;points=[[0,0.5],[1,0.5]];portConstraint=eastwest;top=0;left=0;right=0;bottom=0;labelBorderColor=none;strokeColor=#000000;fontFamily=Helvetica;fontSize=11;fontColor=default;" parent="DV9kczMkqCCmKIpBtvKd-214" vertex="1">
          <mxGeometry y="120" width="150" height="30" as="geometry" />
        </mxCell>
        <mxCell id="DV9kczMkqCCmKIpBtvKd-228" value="updated_at" style="shape=partialRectangle;connectable=0;fillColor=none;top=0;left=0;bottom=0;right=0;editable=1;overflow=hidden;labelBorderColor=none;strokeColor=#000000;fontFamily=Helvetica;fontSize=11;fontColor=default;" parent="DV9kczMkqCCmKIpBtvKd-227" vertex="1">
          <mxGeometry width="60" height="30" as="geometry">
            <mxRectangle width="60" height="30" as="alternateBounds" />
          </mxGeometry>
        </mxCell>
        <mxCell id="DV9kczMkqCCmKIpBtvKd-229" value="date" style="shape=partialRectangle;connectable=0;fillColor=none;top=0;left=0;bottom=0;right=0;align=left;spacingLeft=6;overflow=hidden;labelBorderColor=none;strokeColor=#000000;fontFamily=Helvetica;fontSize=11;fontColor=default;" parent="DV9kczMkqCCmKIpBtvKd-227" vertex="1">
          <mxGeometry x="60" width="90" height="30" as="geometry">
            <mxRectangle width="90" height="30" as="alternateBounds" />
          </mxGeometry>
        </mxCell>
        <mxCell id="DV9kczMkqCCmKIpBtvKd-221" value="" style="shape=tableRow;horizontal=0;startSize=0;swimlaneHead=0;swimlaneBody=0;fillColor=none;collapsible=0;dropTarget=0;points=[[0,0.5],[1,0.5]];portConstraint=eastwest;top=0;left=0;right=0;bottom=0;labelBorderColor=none;strokeColor=#000000;fontFamily=Helvetica;fontSize=11;fontColor=default;" parent="DV9kczMkqCCmKIpBtvKd-214" vertex="1">
          <mxGeometry y="150" width="150" height="30" as="geometry" />
        </mxCell>
        <mxCell id="DV9kczMkqCCmKIpBtvKd-222" value="movie_id" style="shape=partialRectangle;connectable=0;fillColor=none;top=0;left=0;bottom=0;right=0;editable=1;overflow=hidden;labelBorderColor=none;strokeColor=#000000;fontFamily=Helvetica;fontSize=11;fontColor=default;" parent="DV9kczMkqCCmKIpBtvKd-221" vertex="1">
          <mxGeometry width="60" height="30" as="geometry">
            <mxRectangle width="60" height="30" as="alternateBounds" />
          </mxGeometry>
        </mxCell>
        <mxCell id="DV9kczMkqCCmKIpBtvKd-223" value="integer" style="shape=partialRectangle;connectable=0;fillColor=none;top=0;left=0;bottom=0;right=0;align=left;spacingLeft=6;overflow=hidden;labelBorderColor=none;strokeColor=#000000;fontFamily=Helvetica;fontSize=11;fontColor=default;" parent="DV9kczMkqCCmKIpBtvKd-221" vertex="1">
          <mxGeometry x="60" width="90" height="30" as="geometry">
            <mxRectangle width="90" height="30" as="alternateBounds" />
          </mxGeometry>
        </mxCell>
        <mxCell id="DV9kczMkqCCmKIpBtvKd-224" value="" style="shape=tableRow;horizontal=0;startSize=0;swimlaneHead=0;swimlaneBody=0;fillColor=none;collapsible=0;dropTarget=0;points=[[0,0.5],[1,0.5]];portConstraint=eastwest;top=0;left=0;right=0;bottom=0;labelBorderColor=none;strokeColor=#000000;fontFamily=Helvetica;fontSize=11;fontColor=default;" parent="DV9kczMkqCCmKIpBtvKd-214" vertex="1">
          <mxGeometry y="180" width="150" height="30" as="geometry" />
        </mxCell>
        <mxCell id="DV9kczMkqCCmKIpBtvKd-225" value="user_id" style="shape=partialRectangle;connectable=0;fillColor=none;top=0;left=0;bottom=0;right=0;editable=1;overflow=hidden;labelBorderColor=none;strokeColor=#000000;fontFamily=Helvetica;fontSize=11;fontColor=default;" parent="DV9kczMkqCCmKIpBtvKd-224" vertex="1">
          <mxGeometry width="60" height="30" as="geometry">
            <mxRectangle width="60" height="30" as="alternateBounds" />
          </mxGeometry>
        </mxCell>
        <mxCell id="DV9kczMkqCCmKIpBtvKd-226" value="integer" style="shape=partialRectangle;connectable=0;fillColor=none;top=0;left=0;bottom=0;right=0;align=left;spacingLeft=6;overflow=hidden;labelBorderColor=none;strokeColor=#000000;fontFamily=Helvetica;fontSize=11;fontColor=default;" parent="DV9kczMkqCCmKIpBtvKd-224" vertex="1">
          <mxGeometry x="60" width="90" height="30" as="geometry">
            <mxRectangle width="90" height="30" as="alternateBounds" />
          </mxGeometry>
        </mxCell>
        <mxCell id="DV9kczMkqCCmKIpBtvKd-236" style="edgeStyle=none;shape=connector;rounded=0;orthogonalLoop=1;jettySize=auto;html=1;labelBackgroundColor=default;strokeColor=default;fontFamily=Helvetica;fontSize=11;fontColor=default;startArrow=ERzeroToMany;startFill=0;endArrow=ERone;endFill=0;exitX=1;exitY=0.5;exitDx=0;exitDy=0;" parent="1" edge="1">
          <mxGeometry relative="1" as="geometry">
            <mxPoint x="510" y="359" as="sourcePoint" />
            <mxPoint x="580" y="360" as="targetPoint" />
          </mxGeometry>
        </mxCell>
        <mxCell id="DV9kczMkqCCmKIpBtvKd-237" style="edgeStyle=none;shape=connector;rounded=0;orthogonalLoop=1;jettySize=auto;html=1;labelBackgroundColor=default;strokeColor=default;fontFamily=Helvetica;fontSize=11;fontColor=default;startArrow=ERzeroToMany;startFill=0;endArrow=ERone;endFill=0;entryX=0.005;entryY=0.967;entryDx=0;entryDy=0;entryPerimeter=0;exitX=1.006;exitY=0.2;exitDx=0;exitDy=0;exitPerimeter=0;" parent="1" edge="1">
          <mxGeometry relative="1" as="geometry">
            <mxPoint x="515.96" y="566" as="sourcePoint" />
            <mxPoint x="581.05" y="566.01" as="targetPoint" />
          </mxGeometry>
        </mxCell>
        <mxCell id="DV9kczMkqCCmKIpBtvKd-238" style="edgeStyle=none;shape=connector;rounded=0;orthogonalLoop=1;jettySize=auto;html=1;exitX=1;exitY=0.5;exitDx=0;exitDy=0;entryX=0;entryY=0.5;entryDx=0;entryDy=0;labelBackgroundColor=default;strokeColor=default;fontFamily=Helvetica;fontSize=11;fontColor=default;startArrow=ERone;startFill=0;endArrow=ERzeroToMany;endFill=0;" parent="1" edge="1">
          <mxGeometry relative="1" as="geometry">
            <mxPoint x="240" y="568" as="sourcePoint" />
            <mxPoint x="355" y="568" as="targetPoint" />
          </mxGeometry>
        </mxCell>
        <mxCell id="DV9kczMkqCCmKIpBtvKd-239" style="edgeStyle=none;shape=connector;rounded=0;orthogonalLoop=1;jettySize=auto;html=1;labelBackgroundColor=default;strokeColor=default;fontFamily=Helvetica;fontSize=11;fontColor=default;startArrow=ERone;startFill=0;endArrow=ERzeroToMany;endFill=0;" parent="1" edge="1">
          <mxGeometry relative="1" as="geometry">
            <mxPoint x="240" y="361" as="sourcePoint" />
            <mxPoint x="360" y="361" as="targetPoint" />
          </mxGeometry>
        </mxCell>
        <mxCell id="DV9kczMkqCCmKIpBtvKd-240" value="accounts_genre_user_likes" style="shape=table;startSize=30;container=1;collapsible=1;childLayout=tableLayout;fixedRows=1;rowLines=0;fontStyle=1;align=center;resizeLast=1;labelBorderColor=none;strokeColor=#000000;fontFamily=Helvetica;fontSize=11;fontColor=default;" parent="1" vertex="1">
          <mxGeometry x="210" y="760" width="180" height="120" as="geometry" />
        </mxCell>
        <mxCell id="DV9kczMkqCCmKIpBtvKd-244" value="" style="shape=tableRow;horizontal=0;startSize=0;swimlaneHead=0;swimlaneBody=0;fillColor=none;collapsible=0;dropTarget=0;points=[[0,0.5],[1,0.5]];portConstraint=eastwest;top=0;left=0;right=0;bottom=1;labelBorderColor=none;strokeColor=#000000;fontFamily=Helvetica;fontSize=11;fontColor=default;" parent="DV9kczMkqCCmKIpBtvKd-240" vertex="1">
          <mxGeometry y="30" width="180" height="30" as="geometry" />
        </mxCell>
        <mxCell id="DV9kczMkqCCmKIpBtvKd-245" value="id" style="shape=partialRectangle;connectable=0;fillColor=none;top=0;left=0;bottom=0;right=0;fontStyle=1;overflow=hidden;labelBorderColor=none;strokeColor=#000000;fontFamily=Helvetica;fontSize=11;fontColor=default;" parent="DV9kczMkqCCmKIpBtvKd-244" vertex="1">
          <mxGeometry width="80" height="30" as="geometry">
            <mxRectangle width="80" height="30" as="alternateBounds" />
          </mxGeometry>
        </mxCell>
        <mxCell id="DV9kczMkqCCmKIpBtvKd-246" value="integer" style="shape=partialRectangle;connectable=0;fillColor=none;top=0;left=0;bottom=0;right=0;align=left;spacingLeft=6;fontStyle=5;overflow=hidden;labelBorderColor=none;strokeColor=#000000;fontFamily=Helvetica;fontSize=11;fontColor=default;" parent="DV9kczMkqCCmKIpBtvKd-244" vertex="1">
          <mxGeometry x="80" width="100" height="30" as="geometry">
            <mxRectangle width="100" height="30" as="alternateBounds" />
          </mxGeometry>
        </mxCell>
        <mxCell id="DV9kczMkqCCmKIpBtvKd-247" value="" style="shape=tableRow;horizontal=0;startSize=0;swimlaneHead=0;swimlaneBody=0;fillColor=none;collapsible=0;dropTarget=0;points=[[0,0.5],[1,0.5]];portConstraint=eastwest;top=0;left=0;right=0;bottom=0;labelBorderColor=none;strokeColor=#000000;fontFamily=Helvetica;fontSize=11;fontColor=default;" parent="DV9kczMkqCCmKIpBtvKd-240" vertex="1">
          <mxGeometry y="60" width="180" height="30" as="geometry" />
        </mxCell>
        <mxCell id="DV9kczMkqCCmKIpBtvKd-248" value="user_id" style="shape=partialRectangle;connectable=0;fillColor=none;top=0;left=0;bottom=0;right=0;editable=1;overflow=hidden;labelBorderColor=none;strokeColor=#000000;fontFamily=Helvetica;fontSize=11;fontColor=default;" parent="DV9kczMkqCCmKIpBtvKd-247" vertex="1">
          <mxGeometry width="80" height="30" as="geometry">
            <mxRectangle width="80" height="30" as="alternateBounds" />
          </mxGeometry>
        </mxCell>
        <mxCell id="DV9kczMkqCCmKIpBtvKd-249" value="integer" style="shape=partialRectangle;connectable=0;fillColor=none;top=0;left=0;bottom=0;right=0;align=left;spacingLeft=6;overflow=hidden;labelBorderColor=none;strokeColor=#000000;fontFamily=Helvetica;fontSize=11;fontColor=default;" parent="DV9kczMkqCCmKIpBtvKd-247" vertex="1">
          <mxGeometry x="80" width="100" height="30" as="geometry">
            <mxRectangle width="100" height="30" as="alternateBounds" />
          </mxGeometry>
        </mxCell>
        <mxCell id="DV9kczMkqCCmKIpBtvKd-250" value="" style="shape=tableRow;horizontal=0;startSize=0;swimlaneHead=0;swimlaneBody=0;fillColor=none;collapsible=0;dropTarget=0;points=[[0,0.5],[1,0.5]];portConstraint=eastwest;top=0;left=0;right=0;bottom=0;labelBorderColor=none;strokeColor=#000000;fontFamily=Helvetica;fontSize=11;fontColor=default;" parent="DV9kczMkqCCmKIpBtvKd-240" vertex="1">
          <mxGeometry y="90" width="180" height="30" as="geometry" />
        </mxCell>
        <mxCell id="DV9kczMkqCCmKIpBtvKd-251" value="prefer_genres" style="shape=partialRectangle;connectable=0;fillColor=none;top=0;left=0;bottom=0;right=0;editable=1;overflow=hidden;labelBorderColor=none;strokeColor=#000000;fontFamily=Helvetica;fontSize=11;fontColor=default;" parent="DV9kczMkqCCmKIpBtvKd-250" vertex="1">
          <mxGeometry width="80" height="30" as="geometry">
            <mxRectangle width="80" height="30" as="alternateBounds" />
          </mxGeometry>
        </mxCell>
        <mxCell id="DV9kczMkqCCmKIpBtvKd-252" value="array" style="shape=partialRectangle;connectable=0;fillColor=none;top=0;left=0;bottom=0;right=0;align=left;spacingLeft=6;overflow=hidden;labelBorderColor=none;strokeColor=#000000;fontFamily=Helvetica;fontSize=11;fontColor=default;" parent="DV9kczMkqCCmKIpBtvKd-250" vertex="1">
          <mxGeometry x="80" width="100" height="30" as="geometry">
            <mxRectangle width="100" height="30" as="alternateBounds" />
          </mxGeometry>
        </mxCell>
        <mxCell id="DV9kczMkqCCmKIpBtvKd-254" style="edgeStyle=none;shape=connector;rounded=0;orthogonalLoop=1;jettySize=auto;html=1;exitX=0;exitY=0.5;exitDx=0;exitDy=0;entryX=0.306;entryY=1.067;entryDx=0;entryDy=0;entryPerimeter=0;labelBackgroundColor=default;strokeColor=default;fontFamily=Helvetica;fontSize=11;fontColor=default;startArrow=ERzeroToMany;startFill=0;endArrow=ERone;endFill=0;" parent="1" edge="1">
          <mxGeometry relative="1" as="geometry">
            <mxPoint x="210" y="834" as="sourcePoint" />
            <mxPoint x="115.07999999999993" y="691.01" as="targetPoint" />
            <Array as="points">
              <mxPoint x="115" y="834" />
            </Array>
          </mxGeometry>
        </mxCell>
        <mxCell id="DV9kczMkqCCmKIpBtvKd-255" style="edgeStyle=none;shape=connector;rounded=0;orthogonalLoop=1;jettySize=auto;html=1;exitX=1;exitY=0.5;exitDx=0;exitDy=0;entryX=0.769;entryY=1.133;entryDx=0;entryDy=0;entryPerimeter=0;labelBackgroundColor=default;strokeColor=default;fontFamily=Helvetica;fontSize=11;fontColor=default;startArrow=ERzeroToMany;startFill=0;endArrow=ERone;endFill=0;" parent="1" edge="1">
          <mxGeometry relative="1" as="geometry">
            <mxPoint x="390" y="831" as="sourcePoint" />
            <mxPoint x="478.03999999999996" y="659.99" as="targetPoint" />
            <Array as="points">
              <mxPoint x="478" y="831" />
            </Array>
          </mxGeometry>
        </mxCell>
      </root>
    </mxGraphModel>
  </diagram>
</mxfile>
